<?xml version="1.0" encoding="UTF-8"?><svg id="a" xmlns="http://www.w3.org/2000/svg" viewBox="0 0 550 550"><polygon points="151.97 213.48 151.97 367.27 398.03 367.27 398.03 213.48 275 290.38 151.97 213.48" style="fill:#fff;"/><polygon points="275 259.62 398.03 182.73 151.97 182.73 275 259.62" style="fill:#fff;"/><path d="M275,0C123.12,0,0,123.12,0,275s123.12,275,275,275,275-123.12,275-275S426.88,0,275,0Zm153.79,367.27c-.05,16.97-13.79,30.71-30.76,30.76H151.97c-16.97-.05-30.71-13.79-30.76-30.76l.15-184.55c-.02-16.94,13.67-30.7,30.61-30.76h246.06c16.97,.05,30.71,13.79,30.76,30.76v184.55Z" style="fill:#fff;"/></svg>