<?xml version="1.0" encoding="utf-8"?>
<!-- Generator: Adobe Illustrator 26.2.1, SVG Export Plug-In . SVG Version: 6.00 Build 0)  -->
<svg version="1.1" id="Layer_1" xmlns="http://www.w3.org/2000/svg" xmlns:xlink="http://www.w3.org/1999/xlink" x="0px" y="0px"
	 viewBox="0 0 600 600" style="enable-background:new 0 0 600 600;" xml:space="preserve">
<style type="text/css">
	.st0{fill:#FFFFFF;}
</style>
<g>
	<g>
		<path class="st0" d="M300.62,241.78c-32.58-0.03-58.83,25.86-58.84,58.03c-0.01,32.23,26.04,58.4,58.12,58.4
			c31.88,0,58.28-26.03,58.31-57.51C358.25,268.23,332.42,241.81,300.62,241.78z"/>
	</g>
	<g>
		<path class="st0" d="M440.85,215.26c-1.33-13.2-5.95-25.34-14.89-35.58c-12.38-14.19-28.69-20.12-46.72-21.2
			c-20.65-1.24-41.36-1.55-62.05-1.8c-20.24-0.25-40.5-0.25-60.74,0.27c-15.11,0.39-30.37,0.68-45.27,2.99
			c-25.44,3.93-42.74,18.58-49.62,43.83c-2.26,8.29-3.44,17.05-3.77,25.64c-0.89,23.46-1.05,46.94-1.5,70.42
			c0.18,0,0.36,0,0.54,0.01c0,14.69-0.28,29.39,0.08,44.08c0.34,13.63,0.87,27.29,2.24,40.84c1.33,13.2,5.95,25.34,14.89,35.58
			c12.38,14.19,28.69,20.11,46.72,21.21c20.3,1.23,40.67,1.56,61.01,1.8c20.71,0.25,41.42,0.16,62.13-0.24
			c13.63-0.27,27.29-0.86,40.84-2.23c13.2-1.33,25.35-5.96,35.58-14.89c14.19-12.38,20.11-28.69,21.21-46.72
			c1.23-20.3,1.56-40.67,1.8-61.01c0.25-20.71,0.16-41.42-0.24-62.13C442.81,242.47,442.22,228.81,440.85,215.26z M299.68,389.93
			c-49.55-0.09-89.66-40.42-89.61-90.09c0.05-49.76,40.4-89.89,90.26-89.78c49.56,0.1,89.65,40.4,89.61,90.09
			C389.89,349.89,349.55,390.03,299.68,389.93z M393.31,227.75c-11.59-0.01-21.13-9.67-21.05-21.29
			c0.08-11.51,9.51-20.9,21.03-20.93c11.75-0.03,21.18,9.35,21.18,21.07C414.47,218.29,405,227.76,393.31,227.75z"/>
	</g>
	<g>
		<path class="st0" d="M300,25C148.12,25,25,148.12,25,300s123.12,275,275,275s275-123.12,275-275S451.88,25,300,25z M475,357.64
			c-0.19,1.09-0.53,2.18-0.56,3.28c-0.4,13.53-1.01,27.03-4.33,40.24c-7.48,29.8-24.76,51.48-53.18,63.78
			c-15.41,6.66-31.79,8.6-48.39,9.28c-3.64,0.15-7.27,0.52-10.91,0.79c-38.43,0-76.85,0-115.28,0c-1.09-0.19-2.18-0.53-3.28-0.56
			c-13.53-0.4-27.03-1.01-40.24-4.33c-29.8-7.48-51.48-24.76-63.78-53.18c-6.66-15.41-8.6-31.79-9.28-48.39
			c-0.15-3.64-0.52-7.27-0.79-10.91c0-38.43,0-76.85,0-115.28c0.19-1.09,0.53-2.18,0.56-3.28c0.4-13.53,1.01-27.03,4.33-40.24
			c7.48-29.8,24.76-51.48,53.18-63.77c15.41-6.66,31.79-8.6,48.39-9.28c3.64-0.15,7.27-0.52,10.91-0.79c38.43,0,76.85,0,115.28,0
			c1.09,0.19,2.18,0.53,3.28,0.56c13.53,0.4,27.03,1.01,40.24,4.33c29.8,7.48,51.48,24.76,63.77,53.18
			c6.66,15.41,8.6,31.79,9.28,48.39c0.15,3.64,0.52,7.27,0.79,10.91C475,280.79,475,319.21,475,357.64z"/>
	</g>
</g>
</svg>
