<?xml version="1.0" encoding="utf-8"?>
<!-- Generator: Adobe Illustrator 26.1.0, SVG Export Plug-In . SVG Version: 6.00 Build 0)  -->
<svg version="1.1" id="Layer_1" xmlns="http://www.w3.org/2000/svg" xmlns:xlink="http://www.w3.org/1999/xlink" x="0px" y="0px"
	 viewBox="0 0 1120 120" style="enable-background:new 0 0 1120 120;" xml:space="preserve">
<style type="text/css">
	.st0{fill:#FFB8B3;}
</style>
<g>
	<path class="st0" d="M0,0v120h1120V0H0z M76.4,99.6c0,0-39.3-19.8-39.3-49.1c0-29.3,39.3-28.7,39.3,0c0-28.7,39.3-29.2,39.3,0
		C115.7,79.8,76.4,99.6,76.4,99.6z M182.7,99.6c0,0-39.3-19.8-39.3-49.1c0-29.3,39.3-28.7,39.3,0c0-28.7,39.3-29.2,39.3,0
		C222,79.8,182.7,99.6,182.7,99.6z M289,99.6c0,0-39.3-19.8-39.3-49.1c0-29.3,39.3-28.7,39.3,0c0-28.7,39.3-29.2,39.3,0
		C328.4,79.8,289,99.6,289,99.6z M395.4,99.6c0,0-39.3-19.8-39.3-49.1c0-29.3,39.3-28.7,39.3,0c0-28.7,39.3-29.2,39.3,0
		C434.7,79.8,395.4,99.6,395.4,99.6z M501.7,99.6c0,0-39.3-19.8-39.3-49.1c0-29.3,39.3-28.7,39.3,0c0-28.7,39.3-29.2,39.3,0
		C541,79.8,501.7,99.6,501.7,99.6z M608,99.6c0,0-39.3-19.8-39.3-49.1c0-29.3,39.3-28.7,39.3,0c0-28.7,39.3-29.2,39.3,0
		C647.3,79.8,608,99.6,608,99.6z M714.4,99.6c0,0-39.3-19.8-39.3-49.1c0-29.3,39.3-28.7,39.3,0c0-28.7,39.3-29.2,39.3,0
		C753.7,79.8,714.4,99.6,714.4,99.6z M820.7,99.6c0,0-39.3-19.8-39.3-49.1c0-29.3,39.3-28.7,39.3,0c0-28.7,39.3-29.2,39.3,0
		C860,79.8,820.7,99.6,820.7,99.6z M927,99.6c0,0-39.3-19.8-39.3-49.1c0-29.3,39.3-28.7,39.3,0c0-28.7,39.3-29.2,39.3,0
		C966.3,79.8,927,99.6,927,99.6z M1033.4,99.6c0,0-39.3-19.8-39.3-49.1c0-29.3,39.3-28.7,39.3,0c0-28.7,39.3-29.2,39.3,0
		C1072.7,79.8,1033.4,99.6,1033.4,99.6z"/>
</g>
</svg>
