<?xml version="1.0" encoding="utf-8"?>
<!-- Generator: Adobe Illustrator 26.2.1, SVG Export Plug-In . SVG Version: 6.00 Build 0)  -->
<svg version="1.1" id="Layer_1" xmlns="http://www.w3.org/2000/svg" xmlns:xlink="http://www.w3.org/1999/xlink" x="0px" y="0px"
	 viewBox="0 0 1120 120" style="enable-background:new 0 0 1120 120;" xml:space="preserve">
<style type="text/css">
	.st0{fill:#FFB8B3;}
</style>
<g>
	<path class="st0" d="M0,0v120h1120V0H0z M76.36,99.55c0,0-39.32-19.78-39.32-49.08c0-29.29,39.32-28.7,39.32,0.04
		c0-28.74,39.32-29.25,39.32,0.04C115.68,79.85,76.36,99.55,76.36,99.55z M182.7,99.55c0,0-39.32-19.78-39.32-49.08
		c0-29.29,39.32-28.7,39.32,0.04c0-28.74,39.32-29.25,39.32,0.04C222.02,79.85,182.7,99.55,182.7,99.55z M289.03,99.55
		c0,0-39.32-19.78-39.32-49.08c0-29.29,39.32-28.7,39.32,0.04c0-28.74,39.32-29.25,39.32,0.04
		C328.35,79.85,289.03,99.55,289.03,99.55z M395.36,99.55c0,0-39.32-19.78-39.32-49.08c0-29.29,39.32-28.7,39.32,0.04
		c0-28.74,39.32-29.25,39.32,0.04C434.68,79.85,395.36,99.55,395.36,99.55z M501.7,99.55c0,0-39.32-19.78-39.32-49.08
		c0-29.29,39.32-28.7,39.32,0.04c0-28.74,39.32-29.25,39.32,0.04C541.02,79.85,501.7,99.55,501.7,99.55z M608.03,99.55
		c0,0-39.32-19.78-39.32-49.08c0-29.29,39.32-28.7,39.32,0.04c0-28.74,39.32-29.25,39.32,0.04
		C647.35,79.85,608.03,99.55,608.03,99.55z M714.36,99.55c0,0-39.32-19.78-39.32-49.08c0-29.29,39.32-28.7,39.32,0.04
		c0-28.74,39.32-29.25,39.32,0.04C753.68,79.85,714.36,99.55,714.36,99.55z M820.7,99.55c0,0-39.32-19.78-39.32-49.08
		c0-29.29,39.32-28.7,39.32,0.04c0-28.74,39.32-29.25,39.32,0.04C860.02,79.85,820.7,99.55,820.7,99.55z M927.03,99.55
		c0,0-39.32-19.78-39.32-49.08c0-29.29,39.32-28.7,39.32,0.04c0-28.74,39.32-29.25,39.32,0.04
		C966.35,79.85,927.03,99.55,927.03,99.55z M1033.36,99.55c0,0-39.32-19.78-39.32-49.08c0-29.29,39.32-28.7,39.32,0.04
		c0-28.74,39.32-29.25,39.32,0.04C1072.68,79.85,1033.36,99.55,1033.36,99.55z"/>
</g>
</svg>
